<?xml version="1.0" encoding="UTF-8"?>
<svg width="100px" height="96px" viewBox="0 0 100 96" version="1.1" xmlns="http://www.w3.org/2000/svg" xmlns:xlink="http://www.w3.org/1999/xlink">
    <title> Search-web-深色模式</title>
    <g id="综合搜索SP2" stroke="none" stroke-width="1" fill="none" fill-rule="evenodd" opacity="0.100000001">
        <g id="搜索-网页-预览" transform="translate(-1404.000000, -393.000000)">
            <g id="-Search-web-深色模式" transform="translate(1404.000000, 393.000000)">
                <rect id="矩形" fill="#FFFFFF" transform="translate(85.000000, 85.000000) rotate(45.000000) translate(-85.000000, -85.000000) " x="74" y="81" width="22" height="8" rx="4"></rect>
                <circle id="椭圆形" stroke="#FFFFFF" stroke-width="8" cx="62.5" cy="62.5" r="23.5"></circle>
                <path d="M92,0 C96.418278,-8.11624501e-16 100,3.581722 100,8 L100,19 L0,19 L0,8 C-5.41083001e-16,3.581722 3.581722,8.11624501e-16 8,0 L92,0 Z M90.5,6 C88.5670034,6 87,7.56700338 87,9.5 C87,11.4329966 88.5670034,13 90.5,13 C92.4329966,13 94,11.4329966 94,9.5 C94,7.56700338 92.4329966,6 90.5,6 Z M78.5,6 C76.5670034,6 75,7.56700338 75,9.5 C75,11.4329966 76.5670034,13 78.5,13 C80.4329966,13 82,11.4329966 82,9.5 C82,7.56700338 80.4329966,6 78.5,6 Z M66.5,6 C64.5670034,6 63,7.56700338 63,9.5 C63,11.4329966 64.5670034,13 66.5,13 C68.4329966,13 70,11.4329966 70,9.5 C70,7.56700338 68.4329966,6 66.5,6 Z" id="形状结合" fill="#FFFFFF"></path>
                <path d="M92,19 L100,19 L100,39 C100,41.209139 98.209139,43 96,43 C93.790861,43 92,41.209139 92,39 L92,19 L92,19 Z" id="矩形备份" fill="#FFFFFF"></path>
                <path d="M4,19 L4,79 C4,83.418278 7.581722,87 12,87 L31,87 L31,87" id="路径-2" stroke="#FFFFFF" stroke-width="8" stroke-linecap="round"></path>
            </g>
        </g>
    </g>
</svg>