<?xml version="1.0" encoding="UTF-8"?>
<svg width="100px" height="95px" viewBox="0 0 100 95" version="1.1" xmlns="http://www.w3.org/2000/svg" xmlns:xlink="http://www.w3.org/1999/xlink">
    <title> Search-web-浅色模式</title>
    <g id="综合搜索SP2" stroke="none" stroke-width="1" fill="none" fill-rule="evenodd" opacity="0.100000001">
        <g id="搜索-网页-预览" transform="translate(-1058.000000, -394.000000)" fill="#262626">
            <g id="编组" transform="translate(620.000000, 161.000000)">
                <g id="编组-12备份-2" transform="translate(8.000000, 66.000000)">
                    <g id="-Search-web-浅色模式" transform="translate(430.000000, 167.000000)">
                        <path d="M62.5,35 C77.6878306,35 90,47.3121694 90,62.5 C90,68.6508474 87.9806435,74.3300488 84.5687305,78.9108043 L92.8847763,87.2279221 C94.4468735,88.7900192 94.4468735,91.3226791 92.8847763,92.8847763 C91.3226791,94.4468735 88.7900192,94.4468735 87.2279221,92.8847763 L78.9118053,84.5679849 C74.3308761,87.9803493 68.6512954,90 62.5,90 C47.3121694,90 35,77.6878306 35,62.5 C35,47.3121694 47.3121694,35 62.5,35 Z M62.5,43 C51.7304474,43 43,51.7304474 43,62.5 C43,73.2695526 51.7304474,82 62.5,82 C73.2695526,82 82,73.2695526 82,62.5 C82,51.7304474 73.2695526,43 62.5,43 Z" id="形状结合"></path>
                        <path d="M92,0 C96.418278,-8.11624501e-16 100,3.581722 100,8 L100,19 L0,19 L0,8 C-5.41083001e-16,3.581722 3.581722,8.11624501e-16 8,0 L92,0 Z M90.5,6 C88.5670034,6 87,7.56700338 87,9.5 C87,11.4329966 88.5670034,13 90.5,13 C92.4329966,13 94,11.4329966 94,9.5 C94,7.56700338 92.4329966,6 90.5,6 Z M78.5,6 C76.5670034,6 75,7.56700338 75,9.5 C75,11.4329966 76.5670034,13 78.5,13 C80.4329966,13 82,11.4329966 82,9.5 C82,7.56700338 80.4329966,6 78.5,6 Z M66.5,6 C64.5670034,6 63,7.56700338 63,9.5 C63,11.4329966 64.5670034,13 66.5,13 C68.4329966,13 70,11.4329966 70,9.5 C70,7.56700338 68.4329966,6 66.5,6 Z" id="形状结合"></path>
                        <path d="M92,19 L100,19 L100,39 C100,41.209139 98.209139,43 96,43 C93.790861,43 92,41.209139 92,39 L92,19 L92,19 Z" id="矩形备份"></path>
                        <path d="M8,19 L8,79.0141845 C8,81.1538477 9.68396847,82.900664 11.8003597,83.0045668 L12,83.0094564 L31,83.0094564 C33.209139,83.0094564 35,84.7982005 35,87.0047282 C35,89.1443914 33.3160315,90.8912076 31.1996403,90.9951105 L31,91 L12,91 C5.47454326,91 0.165607248,85.7976124 0.00379985776,79.3187988 L0,79.0141845 L0,19 L8,19 Z" id="路径-2" fill-rule="nonzero"></path>
                    </g>
                </g>
            </g>
        </g>
    </g>
</svg>